<?xml version="1.0" standalone="no"?>
<!DOCTYPE svg PUBLIC "-//W3C//DTD SVG 20010904//EN"
 "http://www.w3.org/TR/2001/REC-SVG-20010904/DTD/svg10.dtd">
<svg version="1.0" xmlns="http://www.w3.org/2000/svg"
 width="3000.000000pt" height="3000.000000pt" viewBox="0 0 3000.000000 3000.000000"
 preserveAspectRatio="xMidYMid meet">
<metadata>
Created by potrace 1.14, written by Peter Selinger 2001-2017
</metadata>
<g transform="translate(0.000000,3000.000000) scale(0.100000,-0.100000)"
fill="#000000" stroke="none">
<path d="M14555 28153 c-1139 -46 -2279 -346 -3208 -844 -983 -528 -1855
-1288 -2527 -2204 -640 -873 -1027 -1748 -1245 -2820 -228 -1118 -180 -2277
142 -3439 l44 -160 -11 -290 c-11 -289 -8 -500 11 -796 39 -615 180 -1158 385
-1486 25 -41 44 -84 44 -100 0 -16 11 -72 24 -124 22 -89 23 -106 16 -275 l-8
-180 -47 -125 c-26 -69 -86 -206 -135 -305 -138 -282 -255 -458 -482 -727
-103 -121 -158 -181 -554 -608 -395 -425 -628 -720 -834 -1051 -305 -492 -462
-937 -535 -1519 -6 -43 -9 -47 -83 -96 -192 -127 -438 -340 -613 -529 -462
-502 -719 -1048 -719 -1531 0 -113 4 -149 29 -247 l29 -115 -18 -109 c-54
-317 -45 -543 36 -866 34 -137 74 -242 135 -355 29 -53 85 -162 125 -242 126
-253 266 -432 431 -549 221 -159 469 -215 707 -160 105 25 163 51 242 111 33
25 59 38 61 31 8 -22 164 -256 226 -336 93 -123 195 -234 286 -312 108 -92
278 -211 371 -259 41 -21 120 -67 175 -101 180 -112 304 -164 510 -212 253
-60 530 -19 713 105 98 68 208 198 298 354 l45 76 87 -55 c117 -74 224 -127
357 -178 62 -23 132 -55 156 -72 102 -70 238 -127 401 -168 57 -15 117 -35
133 -45 17 -10 57 -25 90 -34 54 -14 66 -14 119 0 32 8 68 21 80 29 11 7 48
18 81 24 351 63 628 238 774 489 30 50 57 92 60 92 3 0 60 -7 126 -15 256 -31
383 -8 461 82 16 19 48 31 138 53 65 16 153 46 196 67 l77 38 43 -110 c133
-341 139 -362 151 -522 13 -173 6 -322 -20 -448 -11 -49 -60 -227 -111 -395
-150 -503 -260 -969 -279 -1187 -7 -78 -19 -126 -59 -240 -85 -237 -151 -538
-137 -626 27 -172 71 -271 177 -399 83 -99 290 -235 438 -286 l95 -33 44 -72
c145 -235 306 -416 473 -531 122 -84 180 -109 337 -148 178 -44 297 -44 474 0
70 17 151 43 180 57 127 61 258 191 322 320 29 59 72 226 85 334 6 46 6 107 1
156 -9 78 -9 80 21 121 l30 42 58 -58 c57 -57 58 -58 65 -131 9 -94 47 -266
75 -342 27 -71 124 -218 177 -268 64 -61 172 -128 239 -149 113 -34 231 -52
298 -45 86 10 283 60 357 90 72 29 236 137 293 192 93 90 196 250 257 396 32
78 41 92 77 112 78 44 223 148 268 191 24 24 66 77 93 119 59 90 96 225 93
340 -1 39 -31 252 -67 475 -36 223 -81 529 -100 680 -45 351 -96 655 -136 812
-17 68 -31 137 -31 153 1 36 -26 145 -40 162 -5 6 -21 58 -36 115 l-27 103
100 2 c55 0 131 6 168 12 l68 12 57 -35 c116 -71 314 -136 522 -172 98 -17
298 -24 725 -27 259 -2 332 7 592 73 275 70 517 180 772 351 179 120 324 236
465 370 l107 102 147 2 c131 2 160 5 262 34 63 17 149 47 190 67 181 86 366
244 485 415 57 83 61 87 90 80 17 -3 89 -6 160 -6 244 0 447 70 674 232 94 68
260 235 391 393 34 41 66 78 69 83 4 4 24 0 45 -8 20 -9 85 -27 144 -41 95
-23 122 -26 237 -21 198 7 376 54 553 147 295 155 537 433 653 751 41 112 94
332 109 449 6 52 18 133 26 180 49 294 35 544 -52 920 -20 85 -52 207 -72 270
-33 111 -35 121 -37 290 -3 246 -37 448 -156 920 -208 831 -518 1587 -1055
2572 -35 64 -64 120 -64 123 0 4 22 66 49 138 174 464 287 957 337 1467 21
212 24 707 5 915 -68 764 -243 1433 -750 2865 -71 201 -128 366 -126 368 1 2
33 -2 71 -9 151 -26 387 10 549 85 440 203 715 673 733 1248 3 101 0 206 -7
265 -28 224 -112 534 -204 748 l-34 81 118 28 c144 34 246 83 456 220 103 67
179 140 250 240 72 101 114 198 143 327 77 342 -69 708 -303 760 -76 16 -171
0 -226 -39 -71 -50 -109 -123 -156 -298 -34 -122 -74 -205 -118 -238 -37 -29
-127 -70 -173 -80 -32 -7 -58 8 -148 86 l-39 34 41 33 c52 40 130 147 177 242
81 159 114 399 80 564 -30 140 -85 203 -202 230 -105 24 -218 -18 -278 -105
-28 -40 -54 -134 -53 -188 1 -35 -31 -78 -67 -92 -65 -25 -59 -31 -108 102
-25 68 -93 272 -152 453 -259 802 -379 1112 -562 1448 -397 731 -930 1293
-1507 1592 -153 79 -278 126 -457 170 -362 89 -583 90 -923 4 -151 -38 -248
-76 -355 -137 l-84 -48 -137 91 c-239 160 -564 338 -832 456 -860 379 -1970
582 -2963 542z m785 -153 c653 -53 1274 -188 1838 -399 399 -149 888 -407
1221 -643 46 -33 89 -57 97 -54 8 3 42 24 76 47 228 155 614 247 917 219 257
-24 486 -88 716 -199 559 -273 1093 -830 1483 -1546 189 -348 302 -642 595
-1550 88 -273 185 -537 201 -547 21 -14 103 -8 162 12 132 46 184 111 195 244
7 73 10 82 43 115 32 32 41 35 91 35 102 0 135 -63 135 -258 0 -119 -30 -258
-75 -346 -60 -119 -156 -221 -252 -268 l-52 -25 47 -60 c97 -123 254 -247 314
-247 34 0 141 36 211 72 129 65 187 152 247 368 50 182 92 234 188 232 160 -2
284 -293 238 -560 -45 -259 -180 -437 -448 -590 -205 -117 -329 -158 -506
-169 -56 -3 -101 -9 -100 -12 2 -3 18 -34 36 -69 201 -386 314 -869 282 -1208
-35 -380 -157 -656 -385 -873 -185 -175 -393 -261 -632 -261 -127 0 -217 20
-325 72 -49 23 -91 39 -94 35 -3 -3 82 -256 190 -562 324 -919 465 -1355 576
-1790 201 -782 256 -1499 170 -2194 -55 -444 -168 -895 -322 -1290 l-60 -153
20 -37 c416 -749 733 -1443 932 -2040 223 -667 345 -1234 339 -1576 -2 -133
-1 -144 29 -235 110 -333 173 -714 158 -960 -4 -58 -15 -161 -26 -230 -10 -69
-21 -147 -25 -175 -21 -172 -90 -417 -154 -544 -155 -305 -414 -531 -721 -629
-165 -53 -311 -70 -438 -52 -76 10 -253 64 -311 95 -23 12 -27 8 -90 -76 -61
-81 -125 -155 -276 -317 -126 -136 -336 -265 -503 -311 -41 -11 -118 -26 -172
-32 -84 -11 -112 -10 -196 3 -55 9 -106 19 -115 23 -12 5 -35 -23 -95 -112
-199 -299 -464 -470 -778 -502 -78 -8 -213 0 -254 14 -7 2 -47 -32 -90 -77
-156 -163 -415 -370 -619 -494 -213 -130 -429 -221 -659 -280 -221 -56 -321
-66 -581 -61 -125 3 -318 7 -428 9 -152 3 -224 10 -301 25 -175 37 -352 105
-465 180 -36 24 -42 25 -101 14 -111 -18 -240 -23 -337 -12 -52 6 -96 9 -98 7
-2 -2 -5 -32 -7 -67 -3 -50 4 -93 30 -194 19 -71 42 -144 50 -161 9 -17 19
-60 24 -95 4 -35 19 -109 33 -164 43 -169 86 -429 137 -830 17 -132 57 -409
91 -615 85 -530 87 -555 61 -660 -12 -46 -34 -102 -48 -124 -67 -100 -196
-207 -339 -279 -64 -32 -71 -39 -83 -78 -36 -119 -150 -322 -231 -412 -79 -88
-221 -178 -351 -222 -250 -85 -450 -68 -618 51 -161 116 -256 322 -269 589
l-6 120 -49 35 c-88 63 -161 176 -193 299 -46 178 -55 382 -29 654 15 160 15
173 -3 260 -16 80 -18 144 -18 507 0 396 -1 416 -20 444 -17 26 -19 46 -18
175 0 125 4 160 27 244 23 87 25 105 16 160 -38 239 -24 642 30 872 13 54 13
52 -14 59 -13 3 -31 8 -38 11 -11 5 -17 -15 -27 -91 -7 -53 -36 -235 -64 -404
-42 -245 -50 -312 -41 -327 42 -66 84 -462 109 -1023 24 -550 44 -1394 34
-1491 -9 -96 -32 -197 -56 -244 -18 -34 -70 -104 -90 -121 -11 -10 -12 -28 -2
-105 13 -110 7 -211 -21 -327 -60 -248 -220 -397 -491 -453 -336 -69 -663 60
-914 361 -76 91 -201 276 -229 337 -18 41 -22 44 -100 67 -274 84 -515 283
-573 475 -47 149 3 436 131 764 39 101 44 123 49 222 9 188 104 602 242 1060
168 555 184 644 165 922 -13 204 -18 224 -103 448 -36 94 -87 227 -113 297
-27 70 -52 128 -56 128 -4 0 -28 -15 -52 -34 -107 -82 -261 -145 -411 -168
-62 -10 -79 -16 -85 -32 -4 -12 -22 -34 -40 -51 -30 -28 -36 -30 -128 -34 -98
-3 -260 11 -366 32 l-58 12 -53 -101 c-69 -133 -102 -180 -172 -244 -148 -136
-349 -229 -563 -260 -60 -9 -92 -19 -108 -33 -35 -32 -117 -29 -169 5 -22 14
-72 33 -114 41 -145 30 -294 91 -419 171 -36 23 -101 55 -145 70 -166 58 -408
195 -542 305 l-38 31 -21 -62 c-64 -189 -217 -407 -343 -487 -25 -16 -89 -44
-141 -62 -265 -89 -608 -21 -930 184 -47 29 -132 80 -190 111 -346 191 -646
514 -845 911 -27 55 -51 102 -53 104 -1 3 -32 -26 -68 -63 -81 -82 -174 -148
-237 -169 -238 -79 -494 -19 -720 168 -118 98 -264 302 -340 476 -18 41 -58
119 -89 174 -122 214 -183 420 -209 703 -14 150 -3 344 30 525 l20 108 -24 69
c-81 238 -44 566 104 914 201 475 660 996 1192 1353 l76 52 6 99 c26 425 209
962 484 1415 228 376 450 651 1005 1245 238 254 413 451 520 587 223 284 419
643 543 995 36 104 37 107 42 301 5 165 3 204 -10 244 -9 26 -22 86 -28 134
-10 75 -18 95 -56 153 -288 439 -431 1305 -383 2327 l9 203 -34 122 c-385
1372 -392 2703 -21 4012 392 1387 1267 2677 2464 3632 813 649 1687 1083 2680
1331 526 132 904 187 1527 225 108 7 697 -3 825 -14z"/>
<path d="M14500 27884 c-544 -31 -974 -92 -1431 -205 -1467 -360 -2747 -1171
-3761 -2380 -340 -407 -662 -897 -901 -1375 -616 -1232 -835 -2650 -631 -4089
46 -327 145 -779 229 -1043 l26 -84 -10 -311 c-31 -872 64 -1549 278 -2002 27
-55 69 -131 96 -170 44 -65 48 -77 60 -167 7 -53 21 -120 30 -149 16 -46 17
-81 12 -274 l-5 -222 -45 -134 c-99 -295 -255 -603 -440 -864 -153 -217 -325
-417 -708 -826 -334 -356 -515 -567 -685 -794 -288 -388 -509 -822 -619 -1215
-54 -196 -95 -453 -95 -601 l0 -67 -142 -95 c-205 -136 -340 -248 -529 -437
-185 -185 -294 -316 -415 -500 -143 -217 -238 -427 -291 -637 -24 -97 -27
-127 -28 -283 0 -167 1 -179 28 -258 l29 -82 -21 -118 c-81 -461 -26 -861 160
-1172 28 -47 75 -136 105 -199 74 -157 153 -271 254 -371 192 -190 394 -254
610 -193 117 32 256 165 354 337 l43 75 37 -102 c130 -353 364 -693 631 -915
102 -86 182 -139 305 -204 47 -25 117 -66 155 -91 318 -205 652 -260 889 -148
174 83 351 378 382 636 l6 50 -25 -52 c-45 -92 -147 -186 -239 -219 -58 -21
-289 -27 -388 -9 -191 33 -423 168 -571 333 -215 241 -320 547 -348 1019 -9
140 -8 161 10 231 32 120 105 332 171 497 60 148 250 561 266 577 4 4 2 -41
-5 -100 -18 -156 -17 -513 2 -679 54 -463 200 -822 422 -1034 126 -120 252
-186 411 -212 l77 -13 53 -80 c81 -119 153 -203 274 -319 171 -164 403 -307
623 -384 50 -18 113 -47 141 -66 135 -88 302 -153 453 -176 109 -15 282 -6
386 21 157 40 325 137 422 244 50 54 139 215 178 319 14 36 22 46 34 42 117
-46 507 -83 518 -49 2 7 -30 31 -72 54 -42 23 -75 44 -72 46 2 2 46 0 98 -6
268 -31 549 66 702 240 38 44 48 50 70 45 14 -4 30 -12 35 -18 13 -16 266
-676 291 -760 26 -84 39 -189 47 -382 5 -129 3 -166 -15 -265 -27 -148 -86
-372 -150 -580 -108 -345 -212 -763 -242 -968 -6 -46 -9 -113 -6 -149 4 -58 1
-72 -28 -136 -47 -102 -98 -254 -136 -403 -26 -102 -33 -150 -33 -229 -1 -91
2 -106 28 -159 73 -148 278 -293 511 -361 49 -14 90 -26 91 -28 1 -1 18 -34
37 -73 71 -142 175 -284 297 -404 63 -63 141 -130 172 -149 172 -101 360 -134
545 -95 208 43 336 159 389 354 21 77 24 280 5 378 l-12 62 56 54 c95 94 119
180 117 436 -1 274 -31 1237 -47 1525 -17 306 -49 643 -66 695 -6 19 -12 44
-13 55 -2 12 -11 21 -25 23 -18 3 -22 8 -17 25 23 95 129 782 138 898 l12 145
67 -28 c37 -15 111 -39 166 -54 54 -14 103 -27 109 -29 8 -2 5 -33 -12 -100
-31 -127 -52 -280 -62 -445 -10 -154 -8 -193 14 -416 16 -159 16 -162 -4 -217
-27 -70 -43 -202 -38 -293 4 -62 7 -70 31 -84 26 -15 27 -17 21 -80 -3 -36 -9
-207 -13 -380 -6 -319 1 -455 31 -571 11 -43 11 -68 -2 -162 -22 -163 -21
-496 1 -612 32 -164 95 -261 222 -342 l42 -26 6 -156 c8 -238 49 -353 167
-472 101 -101 198 -136 345 -126 147 10 337 87 446 180 110 95 247 337 285
503 1 5 44 31 95 56 118 57 244 150 292 215 22 30 43 76 53 114 20 79 17 106
-66 624 -33 204 -73 478 -90 610 -17 132 -44 328 -61 435 -32 208 -138 666
-194 841 -34 105 -34 107 -24 205 13 113 42 197 68 190 111 -33 392 -39 525
-12 l79 16 70 -47 c206 -137 439 -192 822 -194 94 0 271 -1 395 -2 195 -1 240
2 336 21 360 71 718 244 1047 504 56 45 175 154 265 244 l163 163 42 -17 c32
-12 77 -16 182 -17 120 0 151 3 215 23 255 80 444 247 606 533 l55 97 52 -22
c82 -36 154 -50 262 -48 129 1 231 27 360 92 136 67 208 124 356 281 156 167
212 235 274 332 27 42 52 77 55 77 4 0 45 -18 91 -39 190 -89 317 -116 477
-100 417 43 768 336 920 770 32 92 66 238 77 334 4 33 15 110 25 170 58 350
18 717 -125 1147 l-45 136 6 118 c19 379 -198 1258 -491 1990 -163 406 -413
929 -685 1432 l-131 242 51 127 c330 810 452 1696 354 2563 -79 697 -228 1232
-788 2823 -108 306 -196 561 -196 567 0 5 12 12 28 15 15 3 60 16 100 29 l73
22 103 -51 c114 -58 183 -75 295 -75 204 0 405 93 567 262 167 174 271 403
305 674 18 146 6 398 -26 554 -62 297 -205 639 -386 920 -26 41 -47 76 -46 77
2 1 32 -8 67 -21 97 -35 206 -50 318 -43 150 10 260 46 387 126 33 21 87 53
120 72 122 70 245 219 289 353 44 132 40 294 -10 406 -24 52 -69 110 -85 110
-7 0 -38 -89 -79 -230 -43 -145 -108 -246 -205 -315 -80 -58 -153 -90 -276
-121 l-99 -26 -56 26 c-114 52 -258 177 -354 306 -51 67 -134 200 -129 204 2
2 31 8 64 15 33 6 88 25 122 41 155 76 264 284 262 500 l-1 75 -12 -55 c-32
-144 -121 -235 -279 -285 -91 -29 -179 -32 -254 -10 l-52 15 -52 133 c-62 157
-103 280 -250 737 -124 385 -218 650 -303 850 -302 711 -737 1298 -1247 1680
-475 356 -984 493 -1466 394 -189 -39 -389 -133 -523 -244 l-45 -38 -70 50
c-873 627 -1856 979 -3025 1083 -165 15 -754 27 -900 19z m862 -59 c429 -35
829 -103 1202 -205 192 -53 239 -71 432 -168 464 -232 834 -484 1419 -964 39
-32 126 -99 194 -150 93 -69 127 -100 132 -122 4 -15 13 -128 18 -250 22 -460
-23 -883 -146 -1391 -37 -155 -48 -186 -57 -171 -45 75 -270 407 -354 521
-632 867 -1333 1455 -2152 1805 -355 152 -741 253 -1155 302 -167 20 -666 17
-829 -5 -501 -67 -904 -211 -1194 -426 -79 -58 -252 -224 -252 -241 0 -5 10
-21 23 -35 l22 -26 90 42 c390 180 775 290 1175 334 837 91 1673 -93 2410
-530 569 -338 1097 -838 1540 -1460 35 -49 111 -137 168 -195 177 -177 356
-420 516 -698 181 -316 242 -463 354 -857 50 -176 112 -378 137 -450 162 -456
277 -904 365 -1415 156 -917 196 -1846 124 -2865 -57 -812 -186 -1682 -341
-2290 -53 -210 -145 -499 -170 -536 -58 -82 -352 -435 -455 -544 -10 -11 19
59 66 155 330 684 532 1489 586 2340 12 203 13 620 0 795 l-10 130 40 35 39
35 -36 3 c-21 1 -40 7 -44 13 -3 6 -9 52 -13 102 -12 151 -98 756 -114 797
-13 33 -18 -164 -14 -518 l5 -373 -39 5 c-21 2 -51 5 -65 5 l-26 1 -6 293 c-9
488 -67 969 -179 1492 -38 180 -141 562 -154 574 -13 12 6 -414 30 -689 55
-619 76 -1132 59 -1480 -11 -217 -14 -219 -137 -44 -112 160 -235 312 -275
342 -30 22 -31 25 -31 101 l0 78 66 79 c89 106 258 343 250 351 -3 3 -16 -7
-28 -23 -39 -52 -162 -169 -228 -218 -54 -39 -65 -44 -67 -29 -1 10 -7 122
-13 248 -11 229 -32 514 -50 674 -5 47 -9 86 -7 87 3 4 120 -78 171 -120 92
-76 55 -27 -62 83 l-119 111 -7 62 c-39 354 -133 890 -237 1357 -66 292 -84
352 -179 595 -44 113 -80 207 -80 209 0 3 -36 90 -81 194 -44 103 -105 260
-136 348 -30 88 -86 246 -123 350 -69 190 -104 333 -134 537 -15 96 -25 127
-91 273 -99 219 -178 375 -268 531 -81 141 -183 301 -172 269 11 -31 243 -645
261 -689 14 -37 14 -39 -2 -25 -9 8 0 -20 24 -66 42 -85 152 -399 251 -718
227 -730 423 -1544 541 -2245 34 -204 85 -551 95 -655 l7 -68 -75 48 c-41 26
-87 55 -103 64 -25 13 -32 27 -52 110 -37 154 -147 496 -150 471 -4 -24 34
-456 43 -499 l5 -21 -63 19 c-34 10 -105 28 -157 39 -52 12 -96 22 -97 24 -2
1 -12 70 -23 152 -50 370 -124 761 -231 1217 -75 318 -100 409 -178 639 -28
81 -73 243 -101 360 -148 609 -452 1304 -668 1526 -26 27 -58 54 -70 61 -20
11 -19 5 14 -66 180 -391 294 -713 429 -1218 61 -229 82 -302 151 -535 67
-227 111 -426 129 -588 9 -78 33 -229 54 -335 63 -309 152 -852 171 -1042 6
-60 13 -117 16 -126 4 -14 -19 -17 -198 -23 -112 -4 -219 -9 -239 -12 l-36 -6
-12 124 c-37 377 -109 810 -150 906 -49 116 -154 332 -158 328 -3 -2 7 -93 21
-203 33 -256 52 -436 71 -653 18 -221 37 -522 31 -527 -2 -2 -54 -15 -115 -29
-62 -14 -132 -31 -157 -39 l-44 -13 0 26 c0 61 -31 529 -45 682 -34 369 -41
406 -103 601 -60 186 -154 460 -199 579 -31 82 -132 477 -172 672 -35 169 -81
473 -81 536 0 85 13 62 141 -248 38 -91 69 -160 69 -155 0 6 -25 94 -56 195
-246 815 -618 1511 -1029 1926 -141 142 -286 244 -348 244 -18 0 -18 -1 0 -32
11 -18 69 -97 130 -175 144 -184 226 -299 266 -376 19 -34 65 -118 104 -187
287 -509 598 -1325 729 -1912 25 -111 59 -250 75 -308 16 -58 43 -193 60 -300
65 -427 113 -684 175 -944 19 -81 33 -150 31 -153 -3 -2 -8 6 -12 19 -23 81
-108 339 -110 336 -2 -2 3 -64 10 -138 19 -186 42 -523 55 -780 10 -194 9
-216 -5 -225 -118 -73 -166 -108 -181 -129 -9 -15 -14 -30 -10 -33 4 -4 49 4
102 16 52 13 98 21 101 18 9 -10 11 -611 3 -887 -27 -870 -75 -1291 -166
-1458 -1 -2 -10 -5 -21 -7 -10 -2 -19 -4 -20 -5 -2 -2 -15 -4 -30 -5 -16 -2
-41 -6 -58 -10 -16 -4 -43 -8 -60 -9 -16 -2 -39 -7 -49 -11 -13 -6 -17 -5 -13
2 5 8 -2 8 -23 0 -16 -6 -31 -9 -34 -6 -3 2 1 52 9 109 78 591 125 1202 125
1615 0 810 -162 1701 -448 2460 -104 276 -148 414 -198 610 -63 252 -306 789
-466 1031 -38 58 -72 104 -74 101 -2 -2 7 -35 21 -72 159 -421 365 -1113 540
-1813 194 -777 279 -1268 316 -1815 15 -230 6 -905 -15 -1157 -40 -460 -116
-1114 -133 -1131 -6 -6 -24 -12 -40 -14 -15 -1 -41 -8 -56 -14 -16 -6 -32 -9
-37 -6 -5 3 -11 1 -14 -4 -3 -4 -34 -12 -68 -15 -34 -4 -67 -10 -73 -14 -5 -4
-19 -8 -30 -8 -25 -3 -76 -14 -85 -19 -4 -2 1 47 11 109 67 433 100 923 100
1471 0 680 -40 1107 -163 1702 -17 84 -33 151 -35 149 -3 -2 0 -62 6 -133 34
-404 46 -1411 23 -1828 -27 -470 -73 -914 -138 -1337 -28 -179 -33 -191 -79
-194 -26 -1 -87 -15 -100 -22 -5 -4 -14 -7 -20 -8 -57 -9 -74 -14 -98 -23 -16
-6 -42 -11 -58 -11 -18 0 -28 -4 -24 -10 3 -5 -1 -10 -9 -10 -20 0 -20 -8 4
128 71 417 100 799 101 1322 0 676 -53 1242 -177 1885 -35 183 -41 222 -74
520 -16 147 -25 191 -70 330 -87 270 -305 1193 -287 1211 4 4 19 -3 33 -17
l26 -24 -8 30 c-12 50 -118 333 -168 450 -26 61 -82 180 -125 265 -78 154 -78
155 -114 158 -63 5 -70 -5 -88 -127 l-15 -110 49 -118 c63 -151 184 -515 236
-708 23 -82 61 -213 86 -290 34 -104 77 -297 171 -760 114 -565 158 -804 151
-812 -2 -1 -29 88 -61 198 -58 201 -94 313 -95 294 0 -5 15 -86 34 -180 19
-93 33 -171 31 -173 -2 -1 -7 10 -10 25 -15 63 -69 243 -72 240 -2 -2 8 -104
21 -228 14 -123 30 -303 36 -399 16 -239 16 -1030 0 -1265 -37 -566 -109
-1035 -227 -1470 -49 -181 -77 -237 -199 -390 l-47 -60 6 45 c36 262 64 651
77 1079 17 526 -6 1180 -61 1781 -44 474 -100 897 -129 983 -24 68 -48 209
-60 347 -14 159 -136 655 -239 965 -25 77 -45 145 -44 151 3 17 -63 167 -75
171 -7 3 -21 -23 -33 -56 -20 -54 -25 -60 -53 -63 -26 -3 -33 -9 -45 -45 -7
-24 -17 -43 -20 -43 -4 0 -22 39 -41 88 -19 48 -61 146 -93 217 -33 72 -62
136 -65 143 -3 8 5 12 28 12 26 0 30 3 19 10 -8 5 -25 10 -37 10 -17 0 -34 23
-83 111 -136 248 -244 375 -372 440 -43 21 -90 39 -104 39 -36 0 -104 -41
-132 -79 -25 -35 -82 -150 -82 -167 0 -5 -16 -25 -34 -43 -33 -32 -37 -33 -66
-21 -42 17 -97 6 -133 -27 -70 -67 -173 -253 -242 -438 -20 -55 -39 -102 -42
-105 -3 -3 -2 15 1 40 9 72 19 306 12 300 -8 -8 -52 -186 -80 -327 -14 -67
-44 -247 -66 -400 -23 -153 -59 -370 -80 -483 -44 -234 -98 -576 -135 -860
-29 -217 -17 -191 -129 -285 l-48 -40 -18 -130 c-25 -174 -47 -394 -60 -595
-6 -91 -13 -197 -16 -236 l-5 -72 -62 -17 c-34 -10 -127 -44 -207 -76 -79 -32
-146 -56 -149 -53 -7 7 26 448 54 729 14 132 25 243 25 247 0 4 -21 -2 -47
-13 -27 -12 -75 -31 -108 -44 l-60 -23 3 47 c46 750 243 1743 437 2202 18 43
31 79 29 79 -9 0 -55 -105 -99 -225 -173 -478 -320 -1208 -391 -1940 -9 -93
-18 -173 -21 -177 -2 -5 -12 -8 -21 -8 -9 0 -23 -4 -30 -8 -22 -15 -78 -489
-103 -879 l-12 -192 -71 -50 c-38 -28 -72 -49 -74 -46 -6 6 -4 688 2 875 7
205 -2 183 -49 -120 -39 -256 -62 -473 -73 -704 l-8 -158 -95 -88 -94 -88 -9
122 c-10 128 4 623 25 902 7 83 9 176 5 207 -7 50 -10 56 -29 54 -27 -3 -27
-9 14 278 49 342 162 913 200 1013 9 23 5 41 -6 30 -8 -8 -71 -257 -109 -433
-44 -200 -88 -441 -121 -655 -14 -91 -27 -180 -31 -198 -5 -33 -6 -33 -52 -31
-58 3 -89 -7 -96 -29 -3 -9 -12 -68 -21 -130 -56 -413 -84 -925 -69 -1273 8
-201 8 -219 -9 -245 -66 -105 -156 -323 -145 -353 1 -6 41 42 88 105 l85 114
8 -62 c58 -456 115 -735 211 -1034 24 -74 41 -136 37 -138 -3 -2 -42 -9 -86
-16 -72 -11 -158 -8 -225 7 -19 4 -22 3 -14 -6 12 -13 217 -67 293 -77 50 -6
51 -7 51 -42 0 -107 62 -412 135 -667 24 -82 55 -204 70 -270 64 -294 215
-664 369 -909 61 -96 52 -102 -10 -8 -51 76 -54 79 -54 56 0 -29 92 -185 171
-290 37 -50 120 -141 183 -202 64 -61 116 -113 116 -116 0 -3 -7 -6 -16 -6
-13 0 -14 -3 -5 -14 9 -10 8 -15 -3 -19 -9 -4 -13 -16 -12 -32 6 -46 -11 -36
-71 43 -295 385 -545 837 -760 1377 -87 215 -218 607 -251 745 -43 181 -40
174 -41 84 -2 -163 56 -504 129 -763 153 -539 412 -1093 701 -1498 96 -135 23
-51 -120 138 -177 233 -376 544 -525 818 -51 95 -58 116 -85 255 -17 83 -35
199 -42 259 -7 62 -16 104 -22 98 -7 -7 -5 -41 18 -246 l5 -40 -10 35 c-5 19
-23 114 -40 210 -17 96 -51 279 -76 405 -148 759 -234 1399 -285 2130 -8 122
-26 1042 -28 1497 l-1 106 -33 11 c-19 7 -41 9 -50 5 -22 -8 -22 -1 3 238 101
948 293 1706 630 2483 126 291 352 712 532 994 422 661 958 1219 1553 1616
354 237 601 347 783 349 82 1 95 11 24 21 -300 41 -1026 -408 -1613 -997 -452
-455 -826 -987 -1158 -1648 -360 -719 -581 -1410 -720 -2250 -33 -197 -85
-599 -97 -740 -3 -47 -8 -88 -11 -92 -2 -5 -18 -1 -35 8 -23 12 -37 13 -53 6
-13 -6 -28 -6 -38 -1 -13 8 -18 5 -22 -13 -16 -68 -37 -435 -42 -738 -7 -422
4 -691 52 -1245 l5 -60 -25 70 c-101 277 -227 853 -279 1275 -41 332 -47 416
-53 801 -10 679 50 1223 203 1832 352 1400 1183 2694 2361 3674 1170 974 2591
1521 4158 1603 218 11 670 4 897 -15z m4317 -845 c299 -64 615 -221 901 -448
134 -107 397 -373 524 -532 268 -336 499 -738 676 -1180 38 -96 129 -355 201
-575 201 -614 257 -780 306 -905 193 -491 401 -792 639 -926 60 -33 62 -36 78
-97 27 -97 68 -221 77 -231 7 -8 137 11 194 28 11 4 1 -3 -23 -15 -77 -37
-175 -51 -312 -46 -148 5 -238 31 -365 104 -75 43 -205 147 -205 164 0 5 33
-17 73 -47 87 -66 225 -135 327 -164 42 -12 123 -24 183 -27 l108 -6 -44 94
c-93 198 -99 209 -125 209 -46 0 -147 31 -227 70 -325 159 -645 583 -1136
1507 -61 115 -108 199 -105 188 85 -338 199 -637 377 -995 116 -231 203 -382
297 -513 33 -45 88 -125 123 -177 35 -52 104 -135 152 -185 95 -96 124 -144
210 -346 185 -433 212 -835 82 -1227 -68 -204 -186 -405 -323 -552 l-70 -75
35 95 c46 124 87 287 109 441 26 182 24 498 -4 684 -47 305 -137 568 -278 812
-41 69 -74 148 -114 268 -179 532 -420 985 -705 1324 -78 93 -193 206 -201
199 -10 -11 54 -164 163 -393 289 -601 408 -917 529 -1400 64 -258 81 -412 69
-618 -4 -71 -9 -127 -10 -125 -2 2 -15 77 -30 168 -117 725 -337 1380 -772
2295 -263 554 -569 1099 -908 1615 -361 551 -640 876 -963 1122 -51 39 -90 73
-88 75 7 7 189 -44 293 -83 163 -60 723 -346 908 -463 118 -75 305 -212 393
-288 34 -30 62 -52 62 -48 0 12 -197 232 -329 368 -168 172 -375 361 -469 425
-378 261 -814 373 -1120 287 -57 -16 -61 -16 -97 2 l-37 19 80 37 c94 43 224
82 337 102 124 22 421 14 554 -15z m-469 -1185 c146 -160 283 -321 370 -435
76 -100 131 -191 351 -579 l179 -315 0 -172 c0 -648 -148 -1426 -398 -2098
-63 -169 -67 -177 -78 -150 -11 26 -12 23 -19 -48 -14 -149 -23 -142 -18 12
l5 155 -62 190 c-65 197 -163 459 -244 652 -35 82 -51 110 -62 106 -11 -4 -14
4 -14 33 0 29 -32 104 -132 306 -72 147 -134 268 -138 268 -3 0 -11 -12 -18
-27 -10 -25 -11 -23 -6 20 5 47 2 55 -91 220 l-97 171 46 155 c108 366 167
678 197 1028 11 139 7 630 -7 718 l-6 40 57 -55 c31 -30 114 -118 185 -195z
m1218 -1885 c60 -107 125 -226 145 -265 l36 -70 12 -208 c19 -358 -9 -725 -97
-1262 -112 -686 -163 -887 -357 -1405 -30 -80 -57 -154 -61 -165 -16 -48 152
301 243 505 367 827 487 1260 510 1843 l6 169 83 -223 c45 -123 85 -237 88
-254 7 -38 -19 -190 -51 -297 -19 -64 -32 -156 -55 -398 -48 -510 -93 -818
-171 -1162 -114 -506 -306 -1039 -526 -1458 -63 -119 -213 -386 -238 -422 -9
-13 -10 67 -7 346 9 733 -44 1375 -173 2074 -19 106 -46 240 -59 298 l-23 104
50 107 c94 207 127 297 127 355 0 36 12 90 35 159 86 253 155 531 200 815 22
138 31 169 66 237 35 71 41 91 54 210 8 73 20 232 27 355 6 122 15 219 19 215
4 -5 56 -96 117 -203z m-8429 -417 c10 -19 9 -23 -4 -23 -10 0 -15 9 -15 27 0
29 2 29 19 -4z m50 -98 c133 -277 306 -751 420 -1146 270 -940 436 -2081 492
-3374 18 -413 3 -1118 -26 -1243 -9 -37 9 -24 86 63 315 356 519 925 593 1655
9 85 18 171 20 190 2 19 3 -215 1 -520 -4 -558 -7 -639 -46 -1090 -11 -134
-18 -259 -14 -278 5 -28 14 -37 48 -52 115 -51 486 -68 742 -35 280 36 658
133 919 237 54 21 101 37 103 34 3 -2 -2 -37 -11 -77 -9 -39 -14 -74 -11 -77
3 -3 5 1 5 9 0 9 7 5 19 -10 28 -36 50 -21 137 92 85 111 264 294 361 369 l61
48 -33 -79 c-116 -275 -136 -588 -60 -967 74 -367 262 -723 468 -886 63 -49
67 -58 28 -58 -42 0 -131 -20 -131 -30 0 -13 90 -31 210 -41 165 -13 413 6
590 47 72 16 562 164 570 172 3 2 -15 1 -40 -3 l-45 -6 35 27 c101 80 183 192
269 367 119 245 194 469 232 691 26 153 37 527 20 661 -22 167 -74 328 -140
435 l-30 48 37 -10 c51 -14 200 -79 254 -111 56 -33 58 -41 58 -274 0 -154 -3
-185 -29 -300 -16 -70 -36 -147 -45 -170 -8 -24 -14 -43 -12 -43 2 0 20 29 41
65 21 36 41 65 44 65 3 0 3 -93 -1 -207 -9 -227 -16 -270 -94 -568 -113 -426
-301 -898 -453 -1132 -45 -69 -62 -78 -237 -123 -337 -87 -752 -98 -1099 -28
-302 60 -550 182 -707 346 -119 125 -186 265 -209 441 -14 105 -7 196 25 321
13 52 22 97 20 99 -1 2 -35 0 -74 -4 -72 -7 -72 -7 -101 -53 -38 -60 -67 -138
-87 -234 -19 -91 -4 -83 -192 -93 -63 -3 -185 -12 -270 -20 -85 -9 -254 -24
-375 -35 -750 -69 -1076 -105 -1307 -146 -36 -6 -37 -6 -43 32 -18 105 -59
197 -130 292 -70 92 -77 96 -174 81 -52 -8 -81 -17 -81 -25 0 -28 20 -62 70
-118 68 -77 95 -121 120 -195 49 -147 4 -310 -131 -472 -24 -29 -93 -94 -152
-145 -256 -220 -591 -405 -906 -500 -63 -19 -117 -37 -120 -39 -2 -3 10 -5 27
-5 60 0 91 -59 57 -107 -27 -38 -220 -90 -418 -114 -154 -18 -307 12 -323 64
-10 31 16 44 104 51 100 9 278 41 367 66 l70 20 -60 -6 c-33 -3 -94 -10 -135
-14 -120 -13 -381 -3 -515 20 -359 61 -675 207 -850 391 -167 177 -209 371
-141 664 22 94 24 100 47 97 13 -1 48 -5 77 -8 51 -6 52 -6 52 20 0 15 -9 43
-19 64 -18 34 -142 161 -219 224 -83 68 -125 302 -87 483 18 86 87 229 149
311 64 86 164 176 269 245 49 33 93 59 97 59 4 0 -12 -30 -36 -66 -53 -82 -99
-207 -120 -328 -13 -70 -15 -132 -11 -266 8 -287 62 -503 193 -777 133 -279
381 -542 615 -653 66 -31 61 -40 -22 -40 -27 0 -49 -4 -49 -10 0 -36 300 -47
489 -17 222 36 273 53 686 241 152 69 203 138 235 320 25 145 6 520 -40 770
-53 294 -105 456 -215 672 -90 176 -146 268 -218 357 -26 31 -44 57 -39 57 12
0 103 -58 129 -83 13 -11 25 -18 28 -15 9 8 -216 220 -305 287 -96 72 -146 99
-255 135 -121 41 -243 59 -403 60 l-143 1 -19 66 c-11 36 -20 71 -20 77 0 13
16 18 153 43 l102 19 -137 -5 -137 -4 -30 129 c-67 282 -108 609 -118 941 l-6
215 79 12 c110 17 114 16 114 -13 0 -13 16 -102 36 -197 82 -392 223 -764 378
-998 121 -182 339 -366 568 -481 122 -61 137 -63 33 -4 -226 129 -403 322
-563 615 -87 160 -170 384 -232 627 -39 155 -98 469 -88 478 11 11 323 30 483
29 158 0 202 -5 365 -39 43 -10 -68 35 -230 92 -238 83 -394 122 -531 129
l-116 7 -7 74 c-37 447 -31 986 19 1673 21 275 94 1077 101 1106 10 38 180
174 197 157 3 -2 14 4 25 15 23 23 186 103 217 106 11 1 31 9 45 18 54 35 356
112 419 107 14 -1 33 1 41 4 12 6 213 14 270 12 8 0 26 -23 39 -50z m-1160
-144 c-18 -70 -36 -119 -47 -127 -9 -7 -18 -11 -20 -10 -1 2 18 60 44 130 26
70 48 125 50 124 1 -2 -10 -55 -27 -117z m9196 -312 c-40 -204 -141 -592 -144
-552 -4 60 151 705 166 690 2 -2 -8 -64 -22 -138z m1019 -582 c3 -18 -6 1 -19
41 -13 41 -26 88 -29 105 -3 18 6 -1 19 -41 13 -41 26 -88 29 -105z m145 -767
c2 -550 -108 -1272 -315 -2080 -30 -118 -66 -269 -80 -335 -76 -357 -239 -864
-379 -1175 -26 -58 -58 -130 -72 -160 -48 -106 -4 -33 125 210 71 135 164 310
207 390 42 80 75 138 72 130 -3 -8 -41 -106 -86 -218 -44 -111 -81 -206 -81
-210 2 -28 128 269 245 578 35 91 97 239 140 330 85 182 190 487 250 725 21
83 39 151 40 153 2 1 19 -8 38 -20 43 -27 43 -32 22 -206 -24 -194 -107 -554
-328 -1422 -205 -804 -298 -1246 -361 -1720 -32 -236 -61 -550 -51 -550 3 0
32 17 63 39 73 49 99 58 105 34 4 -14 5 -13 6 5 1 16 12 27 39 39 20 10 38 18
40 19 2 1 16 93 32 205 47 327 100 627 126 717 13 45 24 85 24 89 0 3 2 4 5 1
3 -2 -11 -76 -30 -163 -20 -87 -35 -170 -33 -184 4 -26 40 113 124 472 24 104
68 264 98 355 63 191 157 567 216 858 43 214 109 597 111 642 5 111 28 -273
49 -848 33 -868 43 -1083 66 -1430 74 -1115 277 -2590 490 -3555 211 -956 417
-1554 889 -2575 349 -755 459 -1032 540 -1363 46 -184 64 -312 72 -487 9 -216
-21 -448 -80 -614 l-14 -40 -12 93 c-28 201 -103 425 -216 646 -87 169 -174
312 -351 574 -630 933 -718 1069 -911 1416 -55 99 -133 245 -173 325 -39 80
-101 197 -136 261 -114 206 -176 362 -396 1009 -293 862 -493 1916 -547 2885
-11 189 -26 595 -23 608 1 4 -3 7 -8 7 -21 0 -6 -547 26 -930 106 -1282 419
-2510 908 -3564 50 -107 176 -482 261 -776 155 -538 270 -1129 327 -1680 20
-192 17 -713 -5 -870 -61 -437 -208 -809 -425 -1072 -63 -77 -132 -147 -132
-134 0 4 9 57 20 119 43 245 54 391 55 702 0 316 -8 435 -51 715 -62 408 -153
763 -406 1590 -234 766 -349 1190 -471 1745 -161 726 -373 1905 -437 2430 -20
163 -30 211 -30 149 0 -149 104 -846 236 -1574 191 -1062 342 -1694 639 -2675
52 -170 101 -350 109 -400 86 -501 84 -1166 -5 -1640 -63 -338 -183 -681 -301
-863 -23 -35 -44 -58 -48 -53 -3 6 -13 -4 -23 -23 -17 -37 -148 -208 -154
-202 -2 2 3 21 12 42 33 80 87 284 111 424 14 80 27 155 30 167 3 15 20 30 51
45 55 27 54 24 75 218 19 181 16 679 -6 905 -58 611 -276 1990 -432 2731 -138
659 -296 1183 -416 1382 -18 28 -37 52 -43 52 -14 0 -240 996 -351 1547 l-28
142 22 123 c17 89 28 125 41 134 43 30 37 61 -116 668 -136 539 -147 587 -146
671 1 161 12 308 33 415 90 463 177 1110 221 1630 l12 145 72 75 c201 210 406
518 575 865 232 476 388 973 479 1530 55 334 66 476 66 864 l0 354 47 -189 47
-189 0 -205z m-10692 228 c-3 -8 -6 -5 -6 6 -1 11 2 17 5 13 3 -3 4 -12 1 -19z
m-22 -249 c-24 -296 -31 -863 -14 -1112 7 -111 13 -224 14 -252 l0 -49 -72
-11 -73 -11 0 63 c0 174 41 679 85 1050 34 286 68 533 72 529 2 -2 -4 -95 -12
-207z m12310 -536 c31 -148 43 -323 34 -465 -27 -379 -215 -669 -499 -769 -54
-19 -86 -23 -190 -23 -69 0 -147 3 -175 8 l-50 8 30 21 c17 12 50 40 75 63 25
22 74 60 109 84 119 80 269 240 363 386 47 74 125 237 156 329 49 145 72 274
79 445 l6 155 19 -60 c10 -33 29 -115 43 -182z m-581 46 c8 -57 18 -149 22
-204 6 -95 5 -105 -25 -195 -18 -52 -63 -158 -101 -235 -79 -161 -164 -275
-266 -359 -65 -54 -208 -136 -236 -136 -42 0 -27 25 77 133 275 283 424 596
483 1013 10 71 20 115 24 105 3 -10 13 -65 22 -122z m-5367 -497 c23 -15 37
-293 38 -742 0 -303 -4 -459 -13 -514 -7 -44 -13 -81 -15 -82 -1 -1 -33 -5
-70 -9 l-68 -7 76 152 c42 84 73 155 69 159 -4 3 -9 1 -11 -5 -11 -32 -107
-164 -176 -243 -68 -77 -84 -90 -125 -101 -26 -6 -89 -27 -140 -47 -52 -19
-95 -33 -97 -31 -2 2 7 67 20 143 42 247 50 389 50 878 l0 457 225 0 c124 0
231 -4 237 -8z m-673 -44 c15 -56 -3 -668 -29 -1037 -8 -112 -15 -240 -15
-285 0 -44 -3 -111 -6 -148 l-7 -66 -63 -46 c-35 -25 -64 -51 -64 -57 0 -6 3
-9 8 -7 33 17 105 48 110 48 4 0 5 -30 2 -67 l-5 -67 -89 -53 c-49 -30 -122
-79 -162 -109 -41 -30 -74 -51 -74 -48 0 3 9 97 20 207 40 402 52 647 57 1183
l6 532 71 12 c225 37 232 37 240 8z m1063 -14 c37 -8 107 -27 156 -41 69 -21
88 -31 92 -47 8 -34 43 -457 55 -646 5 -96 12 -211 15 -255 6 -91 20 -71 -130
-184 l-90 -68 -84 -7 -84 -8 7 84 c21 278 15 1086 -10 1171 -6 21 -11 21 73 1z
m4148 -199 c-7 -119 -8 -126 -42 -180 -19 -31 -36 -55 -38 -53 -1 2 13 82 31
178 18 96 34 189 35 205 l1 30 10 -28 c7 -19 8 -74 3 -152z m-3610 42 l40 -14
7 -69 c32 -305 68 -904 68 -1124 l0 -127 -59 20 -58 19 -6 236 c-6 234 -22
432 -52 653 -17 122 -63 403 -71 431 -5 16 -2 16 43 3 26 -8 66 -21 88 -28z
m3770 -436 c-3 -6 -14 -11 -23 -11 -13 0 -13 2 4 14 21 15 30 14 19 -3z
m-11412 -418 c6 -348 13 -468 43 -746 9 -81 14 -154 11 -161 -3 -8 -28 -19
-56 -26 -43 -10 -53 -9 -73 4 -31 22 -45 20 -23 -4 10 -11 16 -22 14 -24 -2
-2 -38 -18 -79 -35 -41 -18 -99 -46 -129 -62 -29 -17 -55 -29 -57 -26 -2 2
-17 69 -33 149 -55 269 -61 340 -61 706 0 185 3 354 6 374 6 36 9 38 113 82
90 40 293 114 312 116 3 0 9 -156 12 -347z m11407 144 c0 -2 13 -69 29 -148
63 -312 134 -579 351 -1319 234 -801 303 -1055 374 -1390 228 -1073 186 -2008
-136 -2979 l-50 -153 -19 28 c-39 63 -184 957 -283 1749 -113 900 -156 1476
-196 2575 -22 626 -42 1004 -70 1355 -23 279 -23 285 -10 285 6 0 10 -2 10 -3z
m-12161 -972 c12 -135 38 -372 45 -415 18 -102 18 -100 -2 -100 -16 0 -23 13
-36 73 -65 287 -115 647 -151 1088 l-6 76 63 45 63 46 6 -342 c4 -187 12 -399
18 -471z m8184 559 l5 -130 -47 7 c-25 4 -72 8 -105 8 l-58 1 28 33 c16 17 60
76 99 130 38 55 70 95 71 90 1 -4 4 -67 7 -139z m-8463 -214 c13 -264 31 -453
66 -679 14 -90 24 -164 22 -166 -2 -2 -29 1 -62 6 -32 5 -61 7 -64 5 -6 -7 10
-12 79 -26 55 -11 57 -12 64 -48 3 -20 24 -111 46 -201 21 -91 37 -172 34
-181 -5 -15 -74 -50 -97 -50 -8 0 -40 104 -93 295 -72 266 -139 643 -170 969
-8 88 -15 165 -15 172 0 7 39 48 88 90 70 64 87 75 89 59 1 -11 7 -121 13
-245z m8130 168 l-65 -60 -3 47 c-2 26 -1 49 1 51 2 3 31 8 63 13 32 5 61 9
64 9 3 1 -24 -26 -60 -60z m-386 -70 c-4 -24 -7 -43 -8 -44 -8 -5 -209 -54
-212 -52 -1 2 7 21 19 43 20 36 30 42 107 66 47 15 88 28 93 28 4 1 4 -18 1
-41z m-459 -145 c-30 -37 -69 -73 -86 -80 l-31 -13 7 46 c3 26 9 52 11 59 4
10 117 52 147 54 4 1 -17 -29 -48 -66z m688 -350 c-7 -2 -19 -2 -25 0 -7 3 -2
5 12 5 14 0 19 -2 13 -5z m-68 -13 c-101 -25 -370 -80 -379 -77 -27 9 309 85
374 85 l35 0 -30 -8z m-6819 -167 c22 -19 34 -36 34 -53 0 -23 -9 -28 -95 -58
-53 -17 -139 -52 -191 -77 -53 -25 -100 -43 -104 -40 -4 2 -10 22 -14 44 -3
22 -9 46 -12 55 -4 11 9 22 53 42 47 21 280 112 291 114 2 0 19 -12 38 -27z
m8378 -72 c-18 -3 -38 18 -69 73 -15 26 -9 23 34 -19 40 -38 48 -51 35 -54z
m-10434 -67 c45 -96 47 -106 59 -240 33 -379 97 -853 164 -1219 30 -162 32
-193 27 -305 l-5 -125 -27 60 c-135 301 -214 637 -264 1119 -20 196 -30 874
-12 836 6 -14 33 -70 58 -126z m9450 105 c60 -27 147 -113 176 -174 31 -66 33
-157 3 -219 -97 -208 -345 -196 -462 22 -76 141 -38 305 84 366 65 32 135 34
199 5z m-482 -56 c3 -19 -1 -23 -22 -23 -28 0 -41 14 -32 36 9 24 50 13 54
-13z m-588 -12 c0 -8 -158 -42 -190 -40 -8 0 8 11 35 25 50 24 155 34 155 15z
m403 -197 l13 -119 114 1 c84 0 104 -2 75 -8 -22 -4 -73 -15 -114 -24 l-74
-16 5 -121 c3 -91 2 -109 -5 -72 -4 28 -14 79 -21 115 l-12 65 -79 5 c-74 5
-78 6 -52 18 16 6 31 12 35 12 4 0 24 5 45 11 l37 10 0 137 c1 164 13 159 33
-14z m2114 -271 c-20 -797 -138 -1490 -363 -2141 -26 -73 -48 -131 -49 -130
-1 2 8 62 21 134 29 166 59 409 74 589 6 77 21 178 32 224 18 73 20 98 12 185
-14 165 -6 346 21 486 42 212 74 422 92 606 l17 175 67 65 c37 35 70 64 75 64
4 0 4 -116 1 -257z m-9572 203 c20 -96 23 -122 15 -130 -6 -6 -11 -4 -14 5 -9
25 -36 137 -36 148 0 19 30 -1 35 -23z m6916 -215 c20 -20 29 -39 29 -61 0
-22 -9 -41 -29 -61 -61 -61 -161 -25 -161 57 0 86 99 126 161 65z m1362 -62
c36 -27 53 -91 38 -141 -24 -80 -117 -106 -172 -47 -87 93 36 266 134 188z
m-6247 -39 c127 -54 199 -191 173 -329 -14 -75 -47 -113 -137 -158 -130 -64
-309 8 -400 160 -45 74 -56 127 -41 190 19 79 85 141 169 158 54 10 190 -1
236 -21z m-1077 -26 c16 -16 -64 -42 -131 -44 -54 0 -21 34 47 51 28 7 74 3
84 -7z m449 -97 c2 -10 -3 -17 -12 -17 -10 0 -16 9 -16 21 0 24 23 21 28 -4z
m7673 -172 c-9 -74 -45 -254 -72 -357 -6 -22 -16 -38 -24 -38 -18 0 -29 -42
-21 -81 16 -81 -259 -849 -313 -874 -11 -5 -21 -13 -21 -17 0 -3 -17 -20 -38
-37 l-38 -30 28 107 c37 141 92 413 117 587 30 201 78 400 114 470 46 92 72
132 222 345 49 70 50 71 53 40 2 -17 -1 -69 -7 -115z m-2390 56 c70 -71 -2
-198 -91 -161 -41 17 -60 46 -60 93 0 50 43 97 90 97 22 0 41 -9 61 -29z
m-5353 -265 l101 1 -87 -29 c-48 -16 -90 -33 -95 -37 -6 -6 3 -107 18 -196 3
-16 -10 15 -28 69 l-32 100 -75 0 c-85 1 -108 10 -89 33 17 19 67 45 104 53
34 7 33 3 22 155 l-7 90 34 -120 33 -120 101 1z m-458 157 c40 -28 49 -45 50
-96 0 -43 -5 -54 -34 -83 -27 -27 -42 -34 -72 -34 -51 0 -102 31 -110 67 -3
15 -7 34 -10 41 -7 25 25 82 58 102 40 24 85 26 118 3z m5804 -137 c71 -30 90
-114 37 -167 -40 -40 -89 -40 -133 0 -28 25 -33 36 -33 74 0 47 21 82 60 98
28 11 31 11 69 -5z m974 -70 c12 -232 -194 -392 -351 -272 -51 38 -109 122
-105 150 6 44 347 189 428 183 23 -2 25 -6 28 -61z m447 -14 c33 -17 73 -40
90 -51 49 -34 145 -133 145 -151 0 -44 -126 -312 -200 -424 -62 -95 -132 -165
-221 -224 -75 -48 -105 -55 -329 -77 -85 -8 -213 -21 -285 -29 -287 -33 -321
-27 -443 80 -101 88 -274 335 -274 391 0 30 61 138 117 206 44 52 146 143 206
181 l26 16 27 -77 c58 -163 173 -306 293 -360 84 -38 206 -43 297 -13 73 24
200 108 257 170 80 87 129 222 129 357 l0 72 53 -18 c28 -10 79 -32 112 -49z
m-5829 -20 c29 -19 35 -51 18 -90 -10 -20 -19 -38 -20 -40 -3 -4 -43 19 -66
37 -21 16 -24 71 -6 89 13 13 57 16 74 4z m-2485 -312 c14 -89 54 -205 92
-267 34 -58 51 -68 236 -146 97 -42 101 -44 71 -51 -18 -3 -47 -6 -65 -6 -31
0 -34 -4 -65 -73 l-33 -73 -104 205 c-57 113 -119 231 -138 261 -32 51 -34 61
-35 136 0 45 3 103 7 130 l7 49 8 -50 c5 -27 13 -79 19 -115z m1075 96 c30
-30 34 -40 34 -85 0 -41 -5 -56 -27 -81 -76 -83 -203 -35 -203 76 0 56 12 79
53 104 51 32 103 26 143 -14z m1540 -321 l92 -44 7 -127 c10 -169 -5 -300 -50
-428 -19 -55 -41 -106 -49 -114 -20 -20 -219 -79 -350 -104 -61 -11 -210 -43
-331 -71 -279 -64 -321 -66 -429 -15 -122 58 -242 144 -343 244 -102 101 -103
102 -78 199 26 99 74 182 153 266 65 69 138 128 146 118 1 -2 12 -28 24 -57
55 -137 206 -305 323 -360 142 -66 261 -69 384 -8 168 83 267 264 268 487 l1
97 70 -20 c39 -10 112 -39 162 -63z m-479 -52 c-10 -62 -58 -144 -102 -175
-48 -34 -125 -46 -179 -28 -42 14 -106 65 -106 85 0 16 147 106 210 128 60 21
76 24 134 26 l49 1 -6 -37z m-1039 18 c18 -11 11 -61 -9 -74 -23 -14 -66 -1
-72 22 -11 42 43 77 81 52z m7727 -143 c-35 -178 -103 -449 -117 -465 -11 -14
-169 -105 -173 -101 -2 2 18 39 43 83 59 104 168 347 223 502 24 67 45 120 47
118 2 -2 -8 -63 -23 -137z m-3477 -71 c3 -23 0 -27 -22 -27 -21 0 -26 5 -26
24 0 43 43 46 48 3z m5041 -34 c0 -55 -2 -63 -10 -44 -9 22 -3 111 7 111 2 0
4 -30 3 -67z m-5303 25 l61 -22 -56 -38 c-47 -32 -71 -40 -140 -49 -118 -16
-395 -7 -443 14 -40 17 -48 36 -24 57 29 23 283 56 456 59 65 1 100 -4 146
-21z m858 -135 c37 -147 150 -329 276 -446 267 -247 655 -391 1153 -428 266
-20 576 8 836 75 105 27 289 89 333 112 35 18 35 8 3 -36 -14 -19 -44 -71 -67
-115 -56 -109 -125 -219 -196 -312 -74 -98 -234 -251 -270 -259 -47 -10 -53
-14 -47 -25 10 -16 106 -1 210 32 248 79 467 272 650 574 51 84 146 279 185
380 19 50 96 152 107 141 2 -1 -15 -54 -38 -117 -201 -565 -531 -1105 -928
-1520 l-111 -117 -40 14 c-21 7 -47 11 -57 8 -67 -22 -76 -29 -99 -78 -13 -28
-24 -59 -24 -69 0 -14 -9 -11 -51 18 -116 80 -200 63 -240 -49 l-12 -34 -31
19 c-47 29 -93 25 -126 -11 -46 -49 -55 -91 -54 -241 l0 -137 -120 -65 c-414
-224 -861 -367 -1472 -472 -80 -14 -153 -29 -162 -34 -19 -10 -257 -43 -477
-66 -607 -63 -1302 -36 -1860 71 -440 85 -799 206 -1210 409 -319 157 -518
281 -700 436 -44 38 -92 84 -106 102 l-27 33 102 17 c203 32 289 97 351 261
27 73 31 66 -55 107 -159 75 -391 231 -550 369 -122 105 -123 106 -73 81 229
-114 424 -139 571 -71 78 36 108 60 76 60 -11 0 -75 7 -144 15 -245 28 -447
77 -625 151 -82 34 -99 47 -194 138 -57 56 -133 139 -169 186 -90 117 -93 121
-36 69 176 -165 384 -282 649 -364 223 -70 415 -97 675 -97 358 0 684 80 1032
254 448 224 842 584 930 850 12 34 22 64 23 65 1 2 80 7 176 13 338 20 1264
97 1834 154 203 20 180 26 199 -51z m4392 -613 c50 -304 144 -763 218 -1060
22 -90 24 -93 32 -60 7 33 9 29 26 -55 96 -455 170 -793 308 -1405 287 -1273
412 -1868 544 -2590 191 -1042 268 -1663 270 -2185 1 -223 -8 -324 -51 -579
-5 -32 -4 -38 9 -34 13 5 13 -5 1 -85 -58 -393 -203 -762 -419 -1064 -25 -35
-48 -62 -51 -60 -2 3 12 76 31 163 83 372 107 590 113 1034 4 278 2 400 -11
565 -29 356 -86 745 -162 1105 -19 91 -44 212 -55 270 -10 58 -24 119 -29 135
-18 55 -168 726 -224 1000 -30 149 -91 470 -135 715 -85 465 -95 518 -105 527
-17 18 -16 10 109 -722 68 -396 133 -720 255 -1275 l109 -495 12 -275 c44
-1046 -79 -1848 -380 -2475 -385 -800 -1122 -1418 -1873 -1570 -114 -23 -423
-53 -434 -42 -2 2 24 14 58 27 103 36 277 124 373 187 422 278 850 853 1165
1563 l33 75 91 38 c104 42 99 37 155 218 101 332 176 687 217 1039 8 75 19
289 24 480 10 419 65 1102 106 1310 5 25 4 32 -4 25 -24 -22 -69 -364 -104
-795 -10 -122 -14 -146 -20 -115 -23 125 -35 169 -41 150 -17 -52 -39 -243
-72 -605 -36 -398 -92 -794 -151 -1058 -63 -281 -247 -743 -445 -1113 -206
-386 -410 -671 -658 -920 -205 -206 -404 -344 -646 -449 -117 -51 -165 -57
-303 -40 l-100 12 113 112 c428 424 802 1234 1014 2201 74 335 159 886 207
1332 l17 162 49 30 c40 26 48 28 49 13 0 -13 2 -12 9 5 5 12 22 29 38 37 23
12 31 24 36 58 130 802 174 1295 183 2073 8 649 -5 973 -87 2165 -22 316 -46
690 -55 830 -8 140 -17 285 -20 322 l-6 66 50 69 c209 287 378 664 504 1128
20 72 42 150 48 175 l13 45 9 -60 c5 -33 24 -157 43 -275z m-1899 54 c8 -21
-19 -46 -40 -38 -9 3 -17 17 -17 30 0 19 5 24 25 24 14 0 28 -7 32 -16z m-193
-25 c35 -27 36 -86 4 -116 -32 -29 -72 -39 -243 -63 -364 -51 -492 -37 -483
53 2 23 11 35 31 45 40 19 518 100 598 101 53 1 72 -3 93 -20z m-8995 -319
c12 -159 4 -270 -39 -550 -17 -107 -33 -208 -36 -225 -3 -17 -2 -25 3 -18 4 6
6 -57 5 -140 -2 -84 -1 -149 2 -146 4 3 13 94 21 201 12 170 19 214 53 339 48
174 79 323 101 484 l17 120 33 -85 c103 -263 147 -464 160 -733 24 -495 -63
-859 -371 -1547 -80 -178 -124 -247 -368 -575 -164 -219 -341 -441 -680 -850
-150 -181 -334 -409 -408 -505 -198 -255 -270 -345 -535 -664 -488 -588 -886
-1092 -871 -1105 5 -4 37 -16 70 -26 l62 -17 -122 -142 c-493 -574 -756 -1048
-843 -1520 -11 -60 -16 -145 -16 -248 0 -87 -2 -158 -3 -158 -10 0 -102 187
-134 274 -151 400 -144 834 20 1341 111 340 286 688 535 1065 271 411 522 719
1285 1585 689 781 932 1079 1175 1440 344 511 573 1025 715 1600 74 297 140
727 140 903 0 27 3 52 8 56 9 10 9 8 21 -154z m3235 -122 c14 -23 0 -48 -28
-48 -16 0 -27 7 -31 20 -13 41 36 63 59 28z m-3429 -665 c-140 -558 -366
-1065 -700 -1568 -212 -321 -468 -642 -904 -1140 -412 -470 -506 -574 -509
-564 -2 5 13 75 33 156 139 556 433 1086 949 1708 55 66 188 224 297 351 452
528 650 802 821 1139 29 57 54 102 55 101 2 -2 -17 -84 -42 -183z m1080 -44
c122 -172 280 -340 419 -445 36 -27 65 -54 66 -60 0 -7 -9 -42 -21 -79 l-21
-68 -107 107 c-122 122 -188 219 -315 466 -43 85 -76 152 -72 148 4 -3 27 -34
51 -69z m8202 -276 c121 -83 277 -364 347 -624 78 -292 93 -658 37 -931 -25
-120 -19 -104 -119 -316 -100 -212 -77 -199 -236 -136 -249 99 -577 291 -761
446 -98 82 -124 109 -177 180 l-35 46 19 59 c25 73 34 219 19 304 -6 35 -31
139 -56 229 -39 145 -45 177 -45 266 0 192 61 288 142 224 62 -48 106 -144
173 -377 21 -73 40 -131 42 -129 20 20 -89 397 -133 462 -25 36 -25 38 -9 79
21 58 48 80 94 79 99 -3 196 -110 246 -271 15 -49 40 -126 56 -173 26 -79 28
-81 23 -35 -17 149 -54 275 -104 357 -29 47 -31 55 -21 87 18 61 48 100 83
109 105 28 196 -83 341 -418 25 -58 49 -118 52 -133 4 -15 9 -26 11 -24 7 7
-28 160 -48 212 -30 76 -85 183 -129 252 l-40 61 19 39 c51 98 133 128 209 76z
m-8276 -243 c122 -157 148 -195 192 -285 76 -152 92 -218 91 -375 0 -109 -6
-157 -27 -249 -28 -122 -22 -108 -372 -776 -283 -540 -603 -1194 -706 -1438
-20 -49 -39 -71 -115 -138 -381 -329 -930 -1100 -1273 -1786 -33 -68 -61 -127
-61 -133 0 -5 7 -10 15 -10 9 0 42 -12 74 -26 l59 -26 -84 -174 c-250 -522
-421 -972 -518 -1365 -52 -211 -88 -420 -84 -486 l3 -45 104 -47 104 -46 17
-100 c45 -264 133 -463 295 -671 37 -46 63 -84 59 -84 -13 0 -120 64 -219 131
-501 340 -840 934 -919 1611 -58 494 0 984 186 1560 l41 127 55 -25 c30 -13
56 -23 58 -22 1 2 31 84 67 183 254 700 547 1186 1269 2105 442 564 735 969
907 1257 23 37 86 124 140 193 55 69 127 170 160 226 157 262 279 655 313
1005 l12 127 47 -68 c25 -37 75 -104 110 -150z m863 -135 c76 -32 243 -65 359
-72 65 -3 120 -9 122 -13 3 -5 -15 -50 -39 -102 -41 -89 -46 -95 -83 -106 -65
-19 -123 -14 -236 22 -84 27 -217 84 -235 101 -8 7 54 185 64 185 6 0 28 -7
48 -15z m-186 -469 c81 -41 191 -70 267 -70 61 0 81 5 149 37 43 21 81 36 83
33 7 -6 -28 -74 -123 -241 -426 -750 -740 -1488 -896 -2105 -24 -93 -45 -170
-48 -170 -3 0 -55 38 -115 85 -104 80 -297 261 -315 296 -10 18 30 111 223
519 280 594 439 924 486 1007 27 49 64 131 81 183 17 52 46 136 65 185 18 50
41 119 49 155 16 61 35 110 43 110 2 0 25 -11 51 -24z m12445 -556 c409 -814
592 -1253 747 -1790 114 -397 219 -903 208 -1011 -3 -30 -11 -16 -65 111 -34
80 -141 318 -238 530 -301 654 -435 977 -569 1369 -144 421 -236 757 -361
1315 -2 11 0 15 5 10 5 -5 127 -245 273 -534z m-7449 105 c-1 -89 -6 -127 -28
-200 -58 -193 -147 -353 -280 -507 l-67 -78 -61 31 c-233 118 -544 371 -649
530 -35 53 -36 56 -32 130 l5 77 112 6 c261 16 626 61 846 105 52 11 109 19
125 18 l30 -2 -1 -110z m186 21 c36 -24 76 -52 90 -64 14 -12 48 -39 76 -61
59 -45 93 -89 100 -128 3 -14 10 -35 15 -45 14 -26 -19 -74 -136 -196 -97
-102 -174 -162 -275 -212 -35 -18 -82 -46 -103 -64 -32 -26 -47 -31 -85 -29
-26 1 -74 -5 -107 -13 -102 -24 -102 -22 -18 80 177 213 283 465 299 707 l7
97 36 -15 c20 -9 65 -34 101 -57z m-1336 -52 c3 -9 6 -34 6 -57 0 -38 -1 -39
-15 -21 -14 18 -14 18 -15 -4 -1 -60 112 -215 252 -347 140 -132 312 -254 450
-320 l72 -35 -114 -1 c-400 -2 -498 5 -634 48 -178 55 -336 165 -336 232 0 68
70 225 160 358 95 142 156 193 174 147z m2778 -165 c56 -56 155 -109 204 -109
21 0 49 -14 90 -46 162 -127 395 -266 594 -355 201 -90 470 -169 575 -169 l33
0 -15 -57 c-17 -66 -63 -170 -92 -212 -12 -16 -21 -31 -21 -34 0 -2 21 -7 46
-10 75 -8 126 -72 126 -157 0 -88 -49 -151 -130 -166 -24 -5 -45 0 -79 17 -61
32 -85 76 -81 149 l4 55 -65 -32 c-252 -124 -670 3 -957 291 -179 180 -287
423 -294 663 -3 108 0 223 5 223 3 0 29 -23 57 -51z m-1282 -435 c-18 -64 -50
-172 -72 -238 -40 -119 -161 -413 -177 -429 -4 -4 -16 5 -26 20 -10 15 -50 68
-87 116 l-69 88 21 45 c37 75 35 142 -6 242 -3 6 1 12 9 12 7 0 58 22 113 49
101 49 179 103 269 184 28 25 51 41 53 37 2 -5 -11 -61 -28 -126z m2660 -170
c119 -28 129 -32 70 -27 -63 6 -230 42 -230 50 0 7 82 -4 160 -23z m-4020 -45
c36 -6 138 -12 227 -13 l163 -1 0 -38 c0 -40 21 -101 44 -127 12 -13 4 -35
-54 -154 -38 -76 -81 -176 -96 -222 -23 -73 -29 -82 -39 -67 -21 30 -240 434
-295 543 -40 79 -47 101 -33 96 10 -3 47 -10 83 -17z m-5086 -771 c28 -29 78
-86 111 -125 33 -40 99 -107 147 -148 169 -147 518 -397 574 -411 17 -4 27
-19 38 -52 43 -133 86 -351 112 -565 l17 -138 -34 -36 c-100 -104 -312 -260
-469 -346 -241 -132 -471 -182 -585 -127 -84 41 -100 121 -46 229 25 49 43 69
86 96 77 49 74 56 -7 17 -123 -60 -249 -78 -326 -46 -52 20 -69 52 -51 95 19
47 119 141 189 178 77 41 86 57 18 31 -29 -12 -70 -28 -92 -36 -73 -27 -255
-37 -240 -13 3 6 -4 7 -19 4 -35 -9 -85 19 -93 52 -19 76 125 191 361 288 112
45 145 71 64 50 -65 -18 -103 -19 -93 -4 4 8 -12 9 -57 4 -153 -16 -320 96
-266 179 36 55 210 108 517 157 36 6 77 13 91 15 26 5 26 5 32 -78 8 -132 65
-253 140 -298 55 -34 74 -24 25 13 -31 24 -55 55 -86 117 -57 112 -66 195 -32
299 l22 70 -58 76 c-33 42 -69 95 -81 118 -12 23 -26 47 -31 52 -37 44 -43
194 -12 264 21 46 45 70 69 71 8 0 37 -24 65 -52z m13113 -366 c159 -288 356
-606 581 -937 l115 -169 -6 -146 c-16 -366 -123 -714 -302 -985 l-40 -60 -7
130 c-42 727 -193 1514 -437 2266 -28 86 -51 160 -51 165 1 5 15 -18 32 -51
17 -33 68 -129 115 -213z m-11639 126 c118 -56 251 -314 356 -695 41 -146 96
-400 96 -440 0 -15 -20 -68 -44 -118 -74 -152 -192 -254 -357 -310 -72 -24
-100 -28 -189 -27 -58 0 -118 4 -135 9 -27 9 -31 15 -37 64 -46 337 -65 456
-103 646 -82 407 -164 622 -249 658 -17 7 -44 27 -60 43 l-28 30 28 15 c98 50
298 109 489 146 70 13 182 3 233 -21z m-1474 -327 c-8 -19 -16 -35 -17 -35 -1
-1 -11 -6 -22 -12 -22 -12 -105 -29 -105 -21 0 3 21 44 47 93 l46 87 33 -38
c32 -38 32 -40 18 -74z m-3546 -513 c-173 -233 -345 -500 -477 -743 -39 -72
-71 -126 -71 -122 0 4 16 48 35 98 101 261 303 574 529 817 37 39 70 72 72 72
2 0 -37 -55 -88 -122z m1126 -317 c-26 -50 -51 -91 -56 -91 -5 0 -16 15 -24
34 l-16 33 43 41 c60 54 93 81 98 77 1 -2 -18 -44 -45 -94z m1735 5 c6 -8 25
-19 41 -26 17 -7 30 -15 30 -19 0 -3 -20 -59 -45 -123 -130 -344 -260 -803
-310 -1100 -116 -686 -66 -1317 145 -1828 29 -70 29 -71 7 -64 -49 14 -124 62
-180 113 -184 171 -294 449 -343 872 -20 176 -15 597 10 779 34 246 89 479
168 718 55 166 58 172 324 583 l117 181 12 -36 c7 -20 18 -42 24 -50z m301
-49 c0 -2 -14 -16 -31 -33 -20 -19 -28 -23 -25 -11 3 9 8 24 11 32 3 12 45 23
45 12z m-2153 -69 c18 -18 33 -37 33 -44 0 -6 -22 -58 -49 -115 -216 -463
-363 -967 -423 -1449 -8 -65 -13 -211 -12 -385 0 -303 15 -444 69 -659 28
-113 31 -105 -58 -152 -75 -39 -148 -49 -226 -30 -37 8 -95 20 -130 26 -85 15
-148 48 -210 110 -138 138 -237 351 -286 619 -24 127 -25 142 -15 315 5 99 16
221 25 270 14 78 23 101 76 185 135 214 280 405 507 671 119 138 640 670 657
670 5 0 24 -14 42 -32z m2183 -187 c37 -8 71 -8 105 -2 27 5 51 8 53 6 2 -1
-11 -58 -28 -126 -70 -278 -170 -853 -194 -1120 l-6 -66 47 -18 c27 -10 69
-28 94 -40 l45 -21 22 245 c30 329 94 813 112 842 5 8 18 8 46 0 46 -13 131
-14 192 -2 25 5 42 5 42 -1 0 -5 -11 -53 -24 -106 -54 -215 -118 -557 -150
-807 -26 -198 -26 -195 -3 -195 18 0 19 -5 13 -57 -37 -336 -27 -741 29 -1089
83 -517 273 -964 549 -1289 46 -55 83 -101 81 -103 -6 -7 -281 70 -374 104
-134 50 -329 152 -441 232 -117 83 -304 267 -393 387 -370 502 -520 1216 -426
2029 l12 104 46 -14 c25 -7 88 -32 140 -54 51 -22 95 -39 96 -38 2 2 8 77 14
168 28 392 81 724 172 1071 l9 37 33 -33 c23 -23 48 -36 87 -44z m12953 -96
c101 -353 169 -640 212 -892 29 -177 58 -420 52 -437 -6 -16 -103 -36 -168
-36 -50 0 -149 18 -161 29 -4 3 -2 29 3 56 58 305 70 902 24 1286 -15 128 -18
165 -11 158 2 -2 24 -76 49 -164z m-5204 -21 c7 -41 11 -77 9 -78 -11 -11
-310 -48 -606 -76 -253 -24 -232 -23 -232 -5 0 8 17 19 43 25 23 6 164 47 312
90 322 95 448 129 456 124 3 -2 12 -38 18 -80z m6680 -47 c107 -161 130 -204
169 -327 103 -322 107 -677 11 -965 -45 -135 -101 -227 -199 -326 -74 -74
-100 -94 -190 -137 -69 -34 -136 -58 -199 -72 -53 -12 -135 -30 -182 -40 -47
-11 -118 -23 -157 -26 l-72 -7 24 59 c64 159 125 406 148 604 l12 104 69 76
c245 267 434 717 463 1103 4 48 8 87 10 87 2 0 44 -60 93 -133z m-10162 68
c186 -38 443 -98 586 -136 31 -8 37 -14 37 -36 0 -24 -3 -25 -32 -19 -142 29
-563 92 -810 121 l-56 7 14 42 c8 22 16 47 19 54 6 16 -4 18 242 -33z m-2350
-116 c34 -12 90 -64 109 -101 22 -42 18 -119 -8 -158 -55 -80 -174 -92 -247
-25 -36 33 -36 34 -36 113 0 95 16 124 85 160 50 25 58 26 97 11z m-1189 -159
c-13 -184 -4 -621 17 -810 52 -485 170 -921 341 -1262 l34 -67 -33 5 c-58 11
-181 55 -227 81 -170 98 -311 261 -420 485 l-50 101 0 109 c0 339 97 869 252
1377 29 93 35 105 62 116 17 8 32 13 32 12 1 -1 -3 -67 -8 -147z m11187 -139
c72 -393 117 -762 135 -1101 l10 -195 -52 -105 c-29 -57 -92 -163 -140 -235
-88 -131 -166 -228 -153 -190 3 11 19 74 35 140 56 233 96 509 121 840 13 167
16 858 4 975 -4 41 -5 73 -2 70 3 -3 22 -93 42 -199z m-1800 -476 c-14 -127
-42 -342 -61 -478 -38 -269 -66 -366 -195 -697 l-52 -135 -29 63 -28 64 25 96
c40 161 91 397 124 577 25 136 39 187 71 255 40 87 74 215 106 412 15 88 22
108 39 116 17 8 20 5 23 -17 2 -15 -9 -130 -23 -256z m2401 -279 l-12 -61 -7
150 c-4 83 -9 182 -12 220 -2 42 6 6 20 -89 21 -141 22 -166 11 -220z m431
-235 c63 -31 146 -55 231 -66 l52 -7 2 -96 c3 -197 1 -209 -48 -310 -91 -186
-260 -409 -386 -509 -110 -88 -234 -138 -368 -149 -117 -10 -122 -4 -64 60 62
67 150 176 197 241 96 136 223 465 284 737 15 71 31 128 34 128 4 0 33 -13 66
-29z m-10921 -723 c215 -249 501 -463 759 -567 52 -21 138 -67 191 -102 l97
-63 -31 -13 c-52 -21 -164 -35 -232 -28 -340 33 -631 268 -823 665 -50 103
-58 136 -43 175 7 19 7 19 -7 2 -9 -11 -18 -14 -22 -8 -6 11 -45 121 -45 129
0 3 17 -17 37 -44 20 -27 74 -92 119 -146z m-1562 -63 c50 -76 168 -199 243
-251 133 -96 302 -154 446 -154 l74 0 46 -69 c153 -231 394 -455 632 -590 50
-28 96 -54 104 -58 9 -6 -10 -20 -60 -45 -129 -65 -312 -146 -369 -162 -353
-105 -689 69 -913 474 -48 88 -110 246 -147 377 -29 103 -29 107 -12 127 38
44 45 60 14 32 -17 -16 -34 -28 -36 -25 -11 11 -72 399 -63 399 2 0 21 -25 41
-55z m11560 -117 c-57 -173 -181 -405 -306 -574 -89 -119 -249 -289 -344 -365
-66 -52 -223 -141 -209 -118 5 8 34 48 64 89 86 117 199 311 281 482 67 139
79 158 110 173 108 52 263 193 360 329 43 61 56 73 58 56 2 -11 -4 -44 -14
-72z m-2229 -295 c-98 -333 -214 -623 -372 -934 l-95 -187 -106 -50 c-195 -92
-410 -152 -613 -170 -52 -5 -95 -8 -97 -6 -2 1 30 25 70 52 228 154 482 401
675 657 91 121 214 311 300 463 42 75 88 146 103 157 50 39 142 130 158 157 9
15 18 26 20 24 2 -2 -18 -75 -43 -163z m-1501 -20 c-21 -27 -72 -88 -114 -138
-41 -49 -93 -115 -115 -145 -22 -30 -63 -82 -90 -115 -107 -127 -405 -635
-585 -995 -34 -69 -68 -132 -74 -140 -22 -27 -45 -103 -57 -185 -6 -44 -13
-87 -16 -95 -4 -8 -6 -18 -5 -22 2 -11 -134 -114 -208 -159 -133 -79 -330
-143 -538 -174 -137 -21 -415 -34 -562 -27 l-125 7 -17 145 c-19 166 -23 423
-8 555 30 267 64 402 232 916 l132 407 56 6 c30 3 87 8 125 12 l70 6 49 -131
c27 -73 55 -157 62 -188 24 -102 72 -128 223 -121 145 8 268 53 645 241 347
172 480 232 654 296 86 32 268 86 301 91 2 0 -14 -21 -35 -47z m-4762 -68
c210 -85 556 -179 599 -163 8 3 28 47 44 97 16 50 34 90 39 88 6 -3 52 -30
101 -62 186 -117 397 -206 583 -245 115 -25 342 -36 427 -22 33 5 62 8 64 6 2
-2 10 -68 18 -146 21 -204 21 -532 -1 -687 -22 -162 -133 -818 -140 -830 -3
-5 -43 -19 -88 -32 -76 -22 -101 -24 -303 -24 -170 0 -243 4 -320 19 -209 38
-411 111 -565 204 l-95 57 -6 200 c-8 233 -20 324 -58 438 -40 118 -372 957
-458 1156 -5 10 -2 12 8 8 8 -3 76 -31 151 -62z m5713 -251 c-91 -200 -299
-567 -385 -681 -83 -110 -342 -295 -565 -403 -218 -106 -376 -152 -578 -170
-93 -8 -207 -4 -207 8 0 11 113 217 157 286 25 39 72 107 103 151 52 72 63 82
111 99 86 29 306 139 404 201 114 71 214 147 318 239 74 64 100 79 257 149 96
43 227 104 290 137 63 32 118 59 122 59 4 1 -8 -33 -27 -75z m-5291 -1557
c255 -171 634 -268 996 -254 151 6 277 30 351 68 l36 18 7 -52 c25 -205 36
-331 29 -337 -18 -18 -178 -60 -284 -76 -135 -20 -376 -15 -529 11 -129 21
-295 66 -416 110 -99 37 -288 130 -332 163 l-23 18 30 122 c17 68 33 151 37
185 4 34 9 65 11 70 5 9 8 7 87 -46z m3325 -89 c32 -100 71 -247 71 -272 0
-21 -147 -116 -271 -175 -196 -94 -419 -163 -639 -197 -141 -22 -384 -22 -525
-1 -60 9 -123 18 -140 19 -26 3 -31 8 -37 43 -11 57 1 210 21 275 16 54 18 55
51 53 458 -26 749 -1 1012 87 148 50 308 142 388 225 19 19 35 35 36 35 1 0
16 -42 33 -92z m-3304 -380 c269 -135 586 -208 903 -208 192 0 355 26 488 77
8 3 15 -7 18 -29 16 -92 48 -953 62 -1658 7 -362 1 -411 -69 -525 -52 -85 -82
-102 -242 -139 -214 -49 -335 -60 -660 -61 -241 0 -323 4 -415 18 -321 50
-508 128 -657 273 -130 126 -152 225 -103 449 22 99 101 350 137 433 l18 44
34 -114 c39 -134 184 -501 167 -423 -12 54 -69 254 -105 366 -57 182 -75 277
-68 371 13 161 94 514 224 970 l75 266 52 -33 c28 -18 92 -53 141 -77z m3430
-103 c36 -161 80 -432 120 -745 19 -151 51 -372 70 -490 19 -118 50 -314 70
-435 39 -246 42 -289 20 -363 -29 -96 -177 -224 -350 -302 -294 -132 -676
-165 -988 -86 -112 29 -251 82 -273 104 -9 9 -23 17 -30 18 -23 4 -112 73
-149 116 -19 23 -44 66 -55 95 -50 133 -69 385 -48 626 l13 148 44 -98 c44
-96 209 -403 217 -403 5 0 4 2 -91 215 -157 354 -179 429 -195 649 -14 184 -2
762 15 776 8 7 35 6 81 -4 289 -61 627 -32 968 81 155 51 358 148 456 217 l65
45 7 -27 c5 -15 19 -76 33 -137z"/>
<path d="M11046 22927 c3 -10 9 -15 12 -12 3 3 0 11 -7 18 -10 9 -11 8 -5 -6z"/>
<path d="M22705 20371 c-19 -61 -180 -277 -279 -375 l-60 -59 50 26 c112 57
209 178 274 341 17 43 29 81 26 83 -2 2 -7 -5 -11 -16z"/>
<path d="M21780 18308 c0 -77 29 -833 40 -1038 49 -906 162 -1944 317 -2890
l37 -225 23 90 c66 260 113 537 138 822 17 196 20 655 5 854 -32 410 -110 845
-241 1338 -52 196 -309 1083 -315 1090 -2 2 -4 -16 -4 -41z m234 -1263 c159
-637 225 -1228 197 -1763 -7 -131 -16 -255 -20 -277 l-7 -40 -6 50 c-90 698
-115 913 -152 1320 -22 235 -32 367 -62 810 -3 50 -4 88 -1 85 3 -3 26 -86 51
-185z"/>
<path d="M13478 15511 c-36 -27 -68 -57 -72 -66 -7 -20 1 -16 81 44 58 43 83
71 64 71 -4 0 -37 -22 -73 -49z"/>
<path d="M17147 15214 c-26 -20 -47 -39 -47 -41 0 -6 90 59 96 69 9 15 -3 8
-49 -28z"/>
<path d="M14410 15009 c-222 -19 -474 -77 -712 -163 -153 -56 -317 -130 -333
-152 -29 -40 -1 -311 50 -490 30 -102 49 -142 121 -251 141 -213 453 -330 782
-294 475 53 774 308 833 711 19 131 -12 280 -82 396 -46 75 -155 201 -190 220
-55 28 -279 39 -469 23z m373 -38 c63 -7 70 -10 118 -57 153 -148 227 -319
215 -494 -12 -178 -75 -325 -193 -450 -114 -122 -254 -200 -445 -250 -105 -27
-321 -38 -436 -21 -222 33 -401 139 -504 299 l-43 67 -3 112 c-4 132 17 236
72 348 68 138 205 289 311 340 57 28 274 78 410 94 50 6 101 13 115 15 47 7
315 5 383 -3z"/>
<path d="M19656 14275 c-11 -303 0 -586 40 -998 13 -139 21 -209 50 -462 4
-33 10 -53 12 -45 3 8 9 17 13 20 4 3 4 23 -1 45 -12 50 -13 105 -2 105 5 0 4
38 -3 85 -8 62 -8 86 0 89 8 3 9 22 4 62 -11 90 -10 104 5 104 25 0 27 14 17
127 -7 74 -6 110 1 114 7 5 2 60 -15 175 -23 146 -78 543 -105 744 -7 55 -9
30 -16 -165z"/>
<path d="M19762 12715 c0 -16 2 -22 5 -12 2 9 2 23 0 30 -3 6 -5 -1 -5 -18z"/>
<path d="M19381 10155 c-20 -153 -109 -969 -105 -974 2 -2 31 23 65 56 l61 59
10 135 c10 132 3 598 -10 749 l-7 75 -14 -100z"/>
<path d="M18851 8963 c0 -12 -4 -30 -7 -40 -5 -17 -5 -17 6 0 6 10 9 28 7 40
-4 22 -4 22 -6 0z"/>
<path d="M7433 12312 c-137 -178 -163 -210 -197 -235 -20 -16 -80 -83 -134
-150 -166 -207 -313 -380 -621 -727 -503 -567 -673 -769 -895 -1065 -146 -194
-395 -570 -385 -579 2 -2 44 -23 93 -46 73 -34 91 -39 101 -28 7 7 52 76 100
153 247 394 479 697 1070 1395 349 412 447 535 602 752 109 152 187 276 241
384 43 86 88 202 80 209 -2 2 -27 -26 -55 -63z"/>
<path d="M7885 13743 c-38 -48 -149 -180 -245 -293 -563 -659 -756 -921 -963
-1310 -55 -103 -160 -330 -152 -330 11 0 467 533 641 750 325 405 586 816 760
1198 18 39 32 72 31 72 -1 0 -33 -39 -72 -87z"/>
<path d="M8550 12142 c-256 -205 -589 -645 -987 -1302 -307 -507 -643 -1154
-869 -1673 l-73 -168 27 -10 c15 -5 73 -28 130 -51 56 -22 104 -39 106 -37 2
2 34 78 71 169 345 847 810 1771 1233 2454 102 165 366 561 409 614 55 67 34
69 -47 4z"/>
<path d="M22670 12117 c0 -42 335 -886 347 -874 11 11 -165 474 -282 742 -54
124 -65 146 -65 132z"/>
<path d="M8755 10330 c22 -243 166 -524 338 -660 42 -34 41 -33 -14 30 -150
174 -268 408 -300 597 -16 94 -32 115 -24 33z"/>
<path d="M22293 10260 c44 -160 144 -725 173 -968 18 -150 18 -153 31 -115 48
136 87 347 98 533 l7 105 -158 235 c-86 129 -154 224 -151 210z"/>
<path d="M7992 9452 c-92 -145 -202 -511 -252 -841 -55 -364 -51 -757 11
-1064 20 -100 67 -262 74 -255 2 2 -4 51 -15 108 -32 180 -44 337 -44 575 1
323 33 605 109 947 35 154 117 457 150 547 8 24 14 45 12 47 -1 2 -22 -27 -45
-64z"/>
<path d="M5977 9303 c-324 -350 -570 -662 -710 -903 -39 -68 -58 -229 -53
-460 3 -157 8 -199 29 -280 44 -169 109 -303 197 -409 64 -77 105 -101 204
-119 83 -16 219 -22 231 -10 4 3 -3 48 -14 100 -46 216 -56 319 -55 623 0 321
9 420 69 720 55 272 158 624 245 834 16 41 28 76 26 78 -2 2 -78 -76 -169
-174z m-196 -554 c-125 -518 -152 -974 -82 -1387 l17 -102 -51 6 c-63 9 -84
22 -133 87 -105 137 -183 358 -182 513 1 32 1 75 1 94 -4 258 6 329 61 419 89
146 393 550 405 538 2 -2 -15 -78 -36 -168z"/>
<path d="M7980 8516 c0 -2 11 -6 25 -8 13 -3 22 -1 19 3 -5 9 -44 13 -44 5z"/>
<path d="M21617 8443 c-4 -46 -10 -97 -14 -114 -5 -28 -4 -30 18 -27 23 3 24
6 21 64 -2 34 -7 83 -11 110 -7 49 -7 49 -14 -33z"/>
<path d="M22944 9065 c-2 -5 -17 -50 -35 -100 -78 -229 -232 -492 -376 -646
-42 -45 -44 -51 -58 -145 -20 -129 -40 -231 -71 -344 -13 -51 -23 -94 -22 -96
8 -7 211 37 269 58 98 36 155 73 237 152 127 122 198 300 222 556 16 162 -3
393 -43 528 l-13 44 -53 2 c-30 1 -55 -3 -57 -9z m33 -477 c-6 -195 -23 -277
-81 -403 -51 -109 -127 -186 -240 -241 -49 -24 -91 -43 -92 -41 -2 1 8 57 21
122 14 66 25 132 25 147 0 17 18 48 54 90 78 91 196 271 258 393 29 58 55 105
57 105 2 0 1 -78 -2 -172z"/>
<path d="M9141 8432 c-30 -191 -51 -400 -51 -510 0 -93 0 -94 52 -195 62 -120
148 -238 225 -306 31 -28 58 -50 59 -48 1 1 -17 61 -42 132 -81 241 -151 555
-189 848 -8 65 -15 138 -15 162 0 89 -18 51 -39 -83z"/>
<path d="M21515 7901 c-47 -204 -154 -483 -239 -623 -19 -32 -32 -58 -29 -58
18 0 104 84 153 151 61 82 189 300 240 411 24 51 30 77 28 114 l-3 47 -66 17
-66 17 -18 -76z"/>
<path d="M9213 6945 c-17 -46 109 -356 200 -492 90 -134 200 -232 324 -290 72
-34 86 -37 189 -41 84 -3 126 0 168 12 70 21 206 82 206 93 0 4 -33 31 -73 59
-161 115 -306 261 -436 436 l-56 76 -60 7 c-144 16 -298 64 -396 125 -57 35
-58 35 -66 15z m404 -270 c39 -6 48 -14 110 -93 36 -48 120 -140 185 -204 112
-112 116 -118 92 -124 -14 -4 -55 -4 -91 -1 -169 16 -341 164 -457 394 -14 29
-26 57 -26 62 0 5 33 1 73 -9 39 -10 91 -21 114 -25z"/>
<path d="M17934 6223 c-68 -94 -176 -223 -268 -320 -43 -46 -76 -83 -73 -83
11 0 170 70 192 84 26 17 219 386 202 386 -2 0 -25 -30 -53 -67z"/>
<path d="M7141 7824 c-25 -65 -62 -173 -83 -239 -34 -109 -38 -130 -38 -230 0
-215 44 -489 104 -648 101 -268 276 -466 521 -590 113 -57 158 -66 328 -68
124 -1 160 2 194 16 46 18 157 129 150 149 -3 6 -37 55 -77 108 -71 96 -72 97
-128 109 -105 21 -224 71 -311 130 -346 233 -546 675 -613 1353 -2 23 -13 2
-47 -90z m138 -840 c58 -124 179 -301 264 -388 69 -69 207 -170 293 -214 40
-20 130 -51 211 -72 31 -8 49 -21 73 -53 30 -41 31 -42 11 -58 -15 -13 -46
-16 -148 -17 -110 -1 -137 2 -196 23 -115 40 -213 102 -312 200 -130 128 -208
267 -265 477 -23 85 -50 286 -49 361 l1 52 37 -111 c21 -61 57 -150 80 -200z"/>
</g>
</svg>
